<svg width="48" height="48" viewBox="0 0 48 48" fill="none" xmlns="http://www.w3.org/2000/svg">
<circle cx="24" cy="24" r="24" fill="#494949"/>
<path d="M38.4776 21.9734H37.5836V21.2358C37.5836 19.7038 36.467 18.4284 35.005 18.1787V18.1023C35.005 16.3917 33.6133 15 31.9027 15C30.1921 15 28.8004 16.3917 28.8004 18.1023V21.9734H18.2008V18.1023C18.2008 16.3918 16.8091 15.0001 15.0985 15.0001C13.3879 15.0001 11.9962 16.3918 11.9962 18.1023V18.1787C10.5342 18.4285 9.41758 19.7038 9.41758 21.2359V21.9734H8.52369C8.23445 21.9734 8 22.2079 8 22.4971V26.5029C8 26.7923 8.23445 27.0266 8.52369 27.0266H9.41771V27.7642C9.41771 29.2962 10.5343 30.5716 11.9963 30.8213V30.8977C11.9963 32.6083 13.3881 34 15.0986 34C16.8092 34 18.201 32.6083 18.201 30.8977V27.0266H28.8006V30.8977C28.8006 32.6083 30.1923 34 31.9029 34C33.6135 34 35.0052 32.6083 35.0052 30.8977V30.8213C36.4672 30.5716 37.5838 29.2962 37.5838 27.7642V27.0266H38.4778C38.7671 27.0266 39.0015 26.7922 39.0015 26.5029V22.4971C39.0013 22.2078 38.7669 21.9734 38.4776 21.9734ZM9.41771 25.9793H9.04745V23.0208H9.41771V25.9793ZM11.9962 29.7512C11.1161 29.519 10.465 28.7163 10.465 27.7642V21.2357C10.465 20.2837 11.1159 19.481 11.9962 19.2488V29.7512ZM17.1534 30.8977C17.1534 32.0308 16.2316 32.9526 15.0985 32.9526C13.9655 32.9526 13.0436 32.0308 13.0436 30.8977V18.1023C13.0436 16.9692 13.9655 16.0474 15.0985 16.0474C16.2316 16.0474 17.1534 16.9692 17.1534 18.1023V30.8977ZM19.1366 25.9793H18.2008V23.0208H19.1366V25.9793ZM26.8174 25.9793H20.1839V23.0208H26.8174V25.9793ZM28.8005 25.9793H27.8648V23.0208H28.8005V25.9793ZM33.9576 30.8977C33.9576 32.0308 33.0358 32.9526 31.9027 32.9526C30.7696 32.9526 29.8478 32.0308 29.8478 30.8977V18.1023C29.8478 16.9692 30.7696 16.0474 31.9027 16.0474C33.0358 16.0474 33.9576 16.9692 33.9576 18.1023V30.8977ZM36.5362 27.7642C36.5362 28.7163 35.8853 29.519 35.005 29.7512V19.2488C35.8851 19.4809 36.5362 20.2837 36.5362 21.2357V27.7642ZM37.9539 25.9793H37.5837V23.0208H37.9539V25.9793Z" fill="white"/>
</svg>
