<svg width="30" height="30" viewBox="0 0 30 30" fill="none" xmlns="http://www.w3.org/2000/svg">
<path d="M30 15C30 6.72581 23.2742 8.9407e-07 15 8.9407e-07C6.72581 8.9407e-07 0 6.72581 0 15C0 23.2742 6.72581 30 15 30C23.2742 30 30 23.2742 30 15Z" fill="#F73974"/>
<path d="M15 30C23.2742 30 30 23.2742 30 15C30 6.72581 23.2742 8.9407e-07 15 8.9407e-07" fill="#DD0772"/>
<path d="M4.4032 25.5968C10.258 31.4517 19.7419 31.4517 25.5967 25.5968C31.4516 19.742 31.4516 10.2581 25.5967 4.4033" fill="#ED266E"/>
<path d="M12.871 8.17746C12.7742 8.17746 12.6291 8.22585 12.5323 8.27424C12.2904 8.37101 12.0968 8.66133 12.0968 8.90327V17.9517C12.0968 18.1936 12.2904 18.4839 12.5323 18.5807C12.7742 18.6775 13.0645 18.6775 13.3065 18.5323L19.4516 13.9839C19.6452 13.8388 19.742 13.6452 19.742 13.4033C19.742 13.1613 19.6452 12.9678 19.4516 12.8226L13.3065 8.27424C13.1613 8.22585 13.0162 8.17746 12.871 8.17746Z" fill="#DD0772"/>
<path d="M12.871 9.77426C12.7742 9.77426 12.6291 9.82265 12.5323 9.87104C12.2904 9.96781 12.0968 10.2581 12.0968 10.5001V19.5485C12.0968 19.7904 12.2904 20.0807 12.5323 20.1775C12.7742 20.2743 13.0645 20.2743 13.3065 20.1291L19.4516 15.5807C19.6452 15.4356 19.742 15.242 19.742 15.0001C19.742 14.7581 19.6452 14.5646 19.4516 14.4194L13.3065 9.87104C13.1613 9.82265 13.0162 9.77426 12.871 9.77426Z" fill="white"/>
</svg>
