<svg width="6" height="26" viewBox="0 0 6 26" fill="none" xmlns="http://www.w3.org/2000/svg">
<path d="M2.89256 19.6636C1.2976 19.6636 0 21.053 0 22.7609C0 24.4688 1.2976 25.8582 2.89256 25.8582C4.48752 25.8582 5.78513 24.4688 5.78513 22.7609C5.78513 21.053 4.48752 19.6636 2.89256 19.6636Z" fill="black"/>
<path d="M2.89256 0.849487C1.2976 0.849487 0 2.23895 0 3.94682C0 5.65469 1.2976 7.04415 2.89256 7.04415C4.48752 7.04415 5.78513 5.65469 5.78513 3.94682C5.78513 2.23895 4.48752 0.849487 2.89256 0.849487Z" fill="black"/>
<path d="M2.89256 10.2565C1.2976 10.2565 0 11.646 0 13.3539C0 15.0617 1.2976 16.4512 2.89256 16.4512C4.48752 16.4512 5.78513 15.0617 5.78513 13.3539C5.78513 11.646 4.48752 10.2565 2.89256 10.2565Z" fill="black"/>
</svg>
