<svg width="6" height="25" viewBox="0 0 6 25" fill="none" xmlns="http://www.w3.org/2000/svg">
<path d="M2.89256 18.8544C1.2976 18.8544 0 20.2084 0 21.8726C0 23.5368 1.2976 24.8908 2.89256 24.8908C4.48752 24.8908 5.78513 23.5368 5.78513 21.8726C5.78513 20.2084 4.48752 18.8544 2.89256 18.8544Z" fill="white"/>
<path d="M2.89256 0.521118C1.2976 0.521118 0 1.87507 0 3.5393C0 5.20352 1.2976 6.55748 2.89256 6.55748C4.48752 6.55748 5.78513 5.20352 5.78513 3.5393C5.78513 1.87507 4.48752 0.521118 2.89256 0.521118Z" fill="white"/>
<path d="M2.89256 9.68781C1.2976 9.68781 0 11.0418 0 12.706C0 14.3702 1.2976 15.7242 2.89256 15.7242C4.48752 15.7242 5.78513 14.3702 5.78513 12.706C5.78513 11.0418 4.48752 9.68781 2.89256 9.68781Z" fill="white"/>
</svg>
